<mxfile host="app.diagrams.net" modified="2024-02-17T17:43:49.909Z" agent="Mozilla/5.0 (Windows NT 10.0; Win64; x64) AppleWebKit/537.36 (KHTML, like Gecko) Chrome/121.0.0.0 Safari/537.36" etag="RCpIj5awPiFUAVcNVHDN" version="23.1.5" type="device">
  <diagram name="Страница — 1" id="avXQ5a6GFvaS8qTPImMt">
    <mxGraphModel dx="726" dy="835" grid="1" gridSize="10" guides="1" tooltips="1" connect="1" arrows="1" fold="1" page="1" pageScale="1" pageWidth="827" pageHeight="1169" math="0" shadow="0">
      <root>
        <mxCell id="0" />
        <mxCell id="1" parent="0" />
        <mxCell id="bU1lk9gH_a850dXzaI8o-6" style="edgeStyle=orthogonalEdgeStyle;rounded=0;orthogonalLoop=1;jettySize=auto;html=1;entryX=0.5;entryY=0;entryDx=0;entryDy=0;" edge="1" parent="1" source="bU1lk9gH_a850dXzaI8o-1" target="bU1lk9gH_a850dXzaI8o-5">
          <mxGeometry relative="1" as="geometry" />
        </mxCell>
        <mxCell id="bU1lk9gH_a850dXzaI8o-1" value="Начало" style="rounded=1;whiteSpace=wrap;html=1;" vertex="1" parent="1">
          <mxGeometry x="98" width="120" height="60" as="geometry" />
        </mxCell>
        <mxCell id="bU1lk9gH_a850dXzaI8o-2" value="Конец" style="rounded=1;whiteSpace=wrap;html=1;" vertex="1" parent="1">
          <mxGeometry x="98" y="380" width="120" height="60" as="geometry" />
        </mxCell>
        <mxCell id="bU1lk9gH_a850dXzaI8o-9" style="edgeStyle=orthogonalEdgeStyle;rounded=0;orthogonalLoop=1;jettySize=auto;html=1;entryX=0.5;entryY=0;entryDx=0;entryDy=0;" edge="1" parent="1" source="bU1lk9gH_a850dXzaI8o-5" target="bU1lk9gH_a850dXzaI8o-8">
          <mxGeometry relative="1" as="geometry" />
        </mxCell>
        <mxCell id="bU1lk9gH_a850dXzaI8o-5" value="&lt;font style=&quot;font-size: 14px;&quot;&gt;string []&amp;nbsp; matrix = {&quot;ya&quot;&lt;span style=&quot;background-color: rgb(31, 31, 31); color: rgb(204, 204, 204); font-family: Consolas, &amp;quot;Courier New&amp;quot;, monospace;&quot;&gt;,&lt;/span&gt;&lt;span style=&quot;font-family: Consolas, &amp;quot;Courier New&amp;quot;, monospace; color: rgb(206, 145, 120);&quot;&gt;&quot;:-)&quot;&lt;/span&gt;&lt;span style=&quot;background-color: rgb(31, 31, 31); color: rgb(204, 204, 204); font-family: Consolas, &amp;quot;Courier New&amp;quot;, monospace;&quot;&gt;, &lt;/span&gt;&lt;span style=&quot;font-family: Consolas, &amp;quot;Courier New&amp;quot;, monospace; color: rgb(206, 145, 120);&quot;&gt;&quot;text&quot;&lt;/span&gt;&lt;span style=&quot;background-color: rgb(31, 31, 31); color: rgb(204, 204, 204); font-family: Consolas, &amp;quot;Courier New&amp;quot;, monospace;&quot;&gt;,&lt;/span&gt;&lt;span style=&quot;font-family: Consolas, &amp;quot;Courier New&amp;quot;, monospace; color: rgb(206, 145, 120);&quot;&gt;&quot;yes&quot;&lt;/span&gt;&lt;span style=&quot;background-color: rgb(31, 31, 31); color: rgb(204, 204, 204); font-family: Consolas, &amp;quot;Courier New&amp;quot;, monospace;&quot;&gt;,&lt;/span&gt;&lt;span style=&quot;font-family: Consolas, &amp;quot;Courier New&amp;quot;, monospace; color: rgb(206, 145, 120);&quot;&gt;&quot;no&quot;&lt;/span&gt;&lt;span style=&quot;background-color: rgb(31, 31, 31); color: rgb(204, 204, 204); font-family: Consolas, &amp;quot;Courier New&amp;quot;, monospace;&quot;&gt;, &lt;/span&gt;&lt;span style=&quot;font-family: Consolas, &amp;quot;Courier New&amp;quot;, monospace; color: rgb(206, 145, 120);&quot;&gt;&quot;london&quot;&lt;/span&gt;&lt;span style=&quot;background-color: rgb(31, 31, 31); color: rgb(204, 204, 204); font-family: Consolas, &amp;quot;Courier New&amp;quot;, monospace;&quot;&gt;,&lt;/span&gt;&lt;span style=&quot;font-family: Consolas, &amp;quot;Courier New&amp;quot;, monospace; color: rgb(206, 145, 120);&quot;&gt;&quot;wow&quot;&lt;/span&gt;&lt;span style=&quot;background-color: initial;&quot;&gt;}&lt;br&gt;&lt;div style=&quot;&quot;&gt;&lt;span style=&quot;background-color: initial;&quot;&gt;int symbol_quantity = 3&lt;/span&gt;&lt;/div&gt;&lt;/span&gt;&lt;/font&gt;" style="rounded=0;whiteSpace=wrap;html=1;" vertex="1" parent="1">
          <mxGeometry x="55" y="100" width="206" height="90" as="geometry" />
        </mxCell>
        <mxCell id="bU1lk9gH_a850dXzaI8o-10" style="edgeStyle=orthogonalEdgeStyle;rounded=0;orthogonalLoop=1;jettySize=auto;html=1;" edge="1" parent="1" source="bU1lk9gH_a850dXzaI8o-8" target="bU1lk9gH_a850dXzaI8o-2">
          <mxGeometry relative="1" as="geometry" />
        </mxCell>
        <mxCell id="bU1lk9gH_a850dXzaI8o-60" style="edgeStyle=orthogonalEdgeStyle;rounded=0;orthogonalLoop=1;jettySize=auto;html=1;entryX=0.5;entryY=0;entryDx=0;entryDy=0;" edge="1" parent="1" source="bU1lk9gH_a850dXzaI8o-8" target="bU1lk9gH_a850dXzaI8o-12">
          <mxGeometry relative="1" as="geometry" />
        </mxCell>
        <mxCell id="bU1lk9gH_a850dXzaI8o-61" value="Метод формирования нового массива" style="edgeLabel;html=1;align=center;verticalAlign=middle;resizable=0;points=[];" vertex="1" connectable="0" parent="bU1lk9gH_a850dXzaI8o-60">
          <mxGeometry x="0.184" y="2" relative="1" as="geometry">
            <mxPoint as="offset" />
          </mxGeometry>
        </mxCell>
        <mxCell id="bU1lk9gH_a850dXzaI8o-8" value="buildArrayOfShortWords(matrix1, symbol_quantity)" style="shape=document;whiteSpace=wrap;html=1;boundedLbl=1;" vertex="1" parent="1">
          <mxGeometry x="20" y="240" width="276" height="110" as="geometry" />
        </mxCell>
        <mxCell id="bU1lk9gH_a850dXzaI8o-14" value="" style="edgeStyle=orthogonalEdgeStyle;rounded=0;orthogonalLoop=1;jettySize=auto;html=1;" edge="1" parent="1" source="bU1lk9gH_a850dXzaI8o-12" target="bU1lk9gH_a850dXzaI8o-27">
          <mxGeometry relative="1" as="geometry">
            <mxPoint x="550" y="430" as="targetPoint" />
          </mxGeometry>
        </mxCell>
        <mxCell id="bU1lk9gH_a850dXzaI8o-15" value="yes" style="edgeLabel;html=1;align=center;verticalAlign=middle;resizable=0;points=[];" vertex="1" connectable="0" parent="bU1lk9gH_a850dXzaI8o-14">
          <mxGeometry x="-0.0497" y="-2" relative="1" as="geometry">
            <mxPoint as="offset" />
          </mxGeometry>
        </mxCell>
        <mxCell id="bU1lk9gH_a850dXzaI8o-12" value="i &amp;lt;&amp;nbsp;matrix&lt;span style=&quot;font-family: Consolas, &amp;quot;Courier New&amp;quot;, monospace; font-size: 14px; color: rgb(212, 212, 212);&quot;&gt;.&lt;/span&gt;&lt;span style=&quot;font-family: Consolas, &amp;quot;Courier New&amp;quot;, monospace; font-size: 14px; color: rgb(220, 220, 170);&quot;&gt;GetLength&lt;/span&gt;" style="rhombus;whiteSpace=wrap;html=1;" vertex="1" parent="1">
          <mxGeometry x="450" y="290" width="200" height="80" as="geometry" />
        </mxCell>
        <mxCell id="bU1lk9gH_a850dXzaI8o-22" style="edgeStyle=orthogonalEdgeStyle;rounded=0;orthogonalLoop=1;jettySize=auto;html=1;entryX=0.5;entryY=0;entryDx=0;entryDy=0;" edge="1" parent="1" source="bU1lk9gH_a850dXzaI8o-13" target="bU1lk9gH_a850dXzaI8o-16">
          <mxGeometry relative="1" as="geometry" />
        </mxCell>
        <mxCell id="bU1lk9gH_a850dXzaI8o-13" value="count_short_words++" style="whiteSpace=wrap;html=1;" vertex="1" parent="1">
          <mxGeometry x="490" y="545" width="120" height="40" as="geometry" />
        </mxCell>
        <mxCell id="bU1lk9gH_a850dXzaI8o-16" value="i++" style="rounded=0;whiteSpace=wrap;html=1;" vertex="1" parent="1">
          <mxGeometry x="490" y="620" width="120" height="40" as="geometry" />
        </mxCell>
        <mxCell id="bU1lk9gH_a850dXzaI8o-19" value="" style="edgeStyle=elbowEdgeStyle;elbow=horizontal;endArrow=classic;html=1;curved=0;rounded=0;endSize=8;startSize=8;exitX=1;exitY=0.5;exitDx=0;exitDy=0;entryX=1;entryY=0.5;entryDx=0;entryDy=0;" edge="1" parent="1" source="bU1lk9gH_a850dXzaI8o-27" target="bU1lk9gH_a850dXzaI8o-16">
          <mxGeometry width="50" height="50" relative="1" as="geometry">
            <mxPoint x="710" y="730" as="sourcePoint" />
            <mxPoint x="550" y="490" as="targetPoint" />
            <Array as="points">
              <mxPoint x="710" y="410" />
            </Array>
          </mxGeometry>
        </mxCell>
        <mxCell id="bU1lk9gH_a850dXzaI8o-20" value="no" style="edgeLabel;html=1;align=center;verticalAlign=middle;resizable=0;points=[];" vertex="1" connectable="0" parent="bU1lk9gH_a850dXzaI8o-19">
          <mxGeometry x="-0.1878" y="-1" relative="1" as="geometry">
            <mxPoint as="offset" />
          </mxGeometry>
        </mxCell>
        <mxCell id="bU1lk9gH_a850dXzaI8o-21" value="" style="edgeStyle=elbowEdgeStyle;elbow=horizontal;endArrow=classic;html=1;curved=0;rounded=0;endSize=8;startSize=8;entryX=0;entryY=0.5;entryDx=0;entryDy=0;exitX=0;exitY=0.5;exitDx=0;exitDy=0;" edge="1" parent="1" source="bU1lk9gH_a850dXzaI8o-16" target="bU1lk9gH_a850dXzaI8o-12">
          <mxGeometry width="50" height="50" relative="1" as="geometry">
            <mxPoint x="470" y="560" as="sourcePoint" />
            <mxPoint x="450" y="370" as="targetPoint" />
            <Array as="points">
              <mxPoint x="400" y="460" />
            </Array>
          </mxGeometry>
        </mxCell>
        <mxCell id="bU1lk9gH_a850dXzaI8o-28" style="edgeStyle=orthogonalEdgeStyle;rounded=0;orthogonalLoop=1;jettySize=auto;html=1;entryX=0.5;entryY=0;entryDx=0;entryDy=0;" edge="1" parent="1" source="bU1lk9gH_a850dXzaI8o-27" target="bU1lk9gH_a850dXzaI8o-13">
          <mxGeometry relative="1" as="geometry" />
        </mxCell>
        <mxCell id="bU1lk9gH_a850dXzaI8o-29" value="yes" style="edgeLabel;html=1;align=center;verticalAlign=middle;resizable=0;points=[];" vertex="1" connectable="0" parent="bU1lk9gH_a850dXzaI8o-28">
          <mxGeometry x="0.345" y="2" relative="1" as="geometry">
            <mxPoint as="offset" />
          </mxGeometry>
        </mxCell>
        <mxCell id="bU1lk9gH_a850dXzaI8o-27" value="matrix[i].Length&amp;lt;len" style="rhombus;whiteSpace=wrap;html=1;" vertex="1" parent="1">
          <mxGeometry x="480" y="410" width="140" height="100" as="geometry" />
        </mxCell>
        <mxCell id="bU1lk9gH_a850dXzaI8o-30" value="" style="endArrow=none;html=1;rounded=0;exitX=1;exitY=0.5;exitDx=0;exitDy=0;" edge="1" parent="1" source="bU1lk9gH_a850dXzaI8o-12">
          <mxGeometry width="50" height="50" relative="1" as="geometry">
            <mxPoint x="750" y="350" as="sourcePoint" />
            <mxPoint x="790" y="330" as="targetPoint" />
          </mxGeometry>
        </mxCell>
        <mxCell id="bU1lk9gH_a850dXzaI8o-36" value="no" style="edgeLabel;html=1;align=center;verticalAlign=middle;resizable=0;points=[];" vertex="1" connectable="0" parent="bU1lk9gH_a850dXzaI8o-30">
          <mxGeometry x="0.3191" y="-2" relative="1" as="geometry">
            <mxPoint as="offset" />
          </mxGeometry>
        </mxCell>
        <mxCell id="bU1lk9gH_a850dXzaI8o-32" value="" style="endArrow=none;html=1;rounded=0;" edge="1" parent="1">
          <mxGeometry width="50" height="50" relative="1" as="geometry">
            <mxPoint x="790" y="690" as="sourcePoint" />
            <mxPoint x="790" y="330" as="targetPoint" />
          </mxGeometry>
        </mxCell>
        <mxCell id="bU1lk9gH_a850dXzaI8o-34" value="" style="endArrow=none;html=1;rounded=0;" edge="1" parent="1">
          <mxGeometry width="50" height="50" relative="1" as="geometry">
            <mxPoint x="550" y="690" as="sourcePoint" />
            <mxPoint x="790" y="690" as="targetPoint" />
          </mxGeometry>
        </mxCell>
        <mxCell id="bU1lk9gH_a850dXzaI8o-35" value="" style="endArrow=classic;html=1;rounded=0;" edge="1" parent="1">
          <mxGeometry width="50" height="50" relative="1" as="geometry">
            <mxPoint x="549.5" y="690" as="sourcePoint" />
            <mxPoint x="549.5" y="750" as="targetPoint" />
          </mxGeometry>
        </mxCell>
        <mxCell id="bU1lk9gH_a850dXzaI8o-51" style="edgeStyle=orthogonalEdgeStyle;rounded=0;orthogonalLoop=1;jettySize=auto;html=1;entryX=0.5;entryY=0;entryDx=0;entryDy=0;" edge="1" parent="1" source="bU1lk9gH_a850dXzaI8o-37" target="bU1lk9gH_a850dXzaI8o-40">
          <mxGeometry relative="1" as="geometry" />
        </mxCell>
        <mxCell id="bU1lk9gH_a850dXzaI8o-37" value="string [] matrix2 = new string [count_short_words]&lt;br&gt;int j = 0" style="rounded=0;whiteSpace=wrap;html=1;" vertex="1" parent="1">
          <mxGeometry x="395" y="750" width="310" height="40" as="geometry" />
        </mxCell>
        <mxCell id="bU1lk9gH_a850dXzaI8o-38" value="" style="edgeStyle=orthogonalEdgeStyle;rounded=0;orthogonalLoop=1;jettySize=auto;html=1;" edge="1" parent="1" source="bU1lk9gH_a850dXzaI8o-40" target="bU1lk9gH_a850dXzaI8o-49">
          <mxGeometry relative="1" as="geometry">
            <mxPoint x="545" y="960" as="targetPoint" />
          </mxGeometry>
        </mxCell>
        <mxCell id="bU1lk9gH_a850dXzaI8o-39" value="yes" style="edgeLabel;html=1;align=center;verticalAlign=middle;resizable=0;points=[];" vertex="1" connectable="0" parent="bU1lk9gH_a850dXzaI8o-38">
          <mxGeometry x="-0.0497" y="-2" relative="1" as="geometry">
            <mxPoint as="offset" />
          </mxGeometry>
        </mxCell>
        <mxCell id="bU1lk9gH_a850dXzaI8o-40" value="i &amp;lt;&amp;nbsp;matrix&lt;span style=&quot;font-family: Consolas, &amp;quot;Courier New&amp;quot;, monospace; font-size: 14px; color: rgb(212, 212, 212);&quot;&gt;.&lt;/span&gt;&lt;span style=&quot;font-family: Consolas, &amp;quot;Courier New&amp;quot;, monospace; font-size: 14px; color: rgb(220, 220, 170);&quot;&gt;GetLength&lt;/span&gt;" style="rhombus;whiteSpace=wrap;html=1;" vertex="1" parent="1">
          <mxGeometry x="445" y="820" width="200" height="80" as="geometry" />
        </mxCell>
        <mxCell id="bU1lk9gH_a850dXzaI8o-41" style="edgeStyle=orthogonalEdgeStyle;rounded=0;orthogonalLoop=1;jettySize=auto;html=1;entryX=0.5;entryY=0;entryDx=0;entryDy=0;" edge="1" parent="1" source="bU1lk9gH_a850dXzaI8o-42" target="bU1lk9gH_a850dXzaI8o-43">
          <mxGeometry relative="1" as="geometry" />
        </mxCell>
        <mxCell id="bU1lk9gH_a850dXzaI8o-42" value="count_short_words++" style="whiteSpace=wrap;html=1;" vertex="1" parent="1">
          <mxGeometry x="485" y="1075" width="120" height="40" as="geometry" />
        </mxCell>
        <mxCell id="bU1lk9gH_a850dXzaI8o-43" value="i++" style="rounded=0;whiteSpace=wrap;html=1;" vertex="1" parent="1">
          <mxGeometry x="485" y="1150" width="120" height="40" as="geometry" />
        </mxCell>
        <mxCell id="bU1lk9gH_a850dXzaI8o-44" value="" style="edgeStyle=elbowEdgeStyle;elbow=horizontal;endArrow=classic;html=1;curved=0;rounded=0;endSize=8;startSize=8;exitX=1;exitY=0.5;exitDx=0;exitDy=0;entryX=1;entryY=0.5;entryDx=0;entryDy=0;" edge="1" parent="1" source="bU1lk9gH_a850dXzaI8o-49" target="bU1lk9gH_a850dXzaI8o-43">
          <mxGeometry width="50" height="50" relative="1" as="geometry">
            <mxPoint x="705" y="1260" as="sourcePoint" />
            <mxPoint x="545" y="1020" as="targetPoint" />
            <Array as="points">
              <mxPoint x="705" y="940" />
            </Array>
          </mxGeometry>
        </mxCell>
        <mxCell id="bU1lk9gH_a850dXzaI8o-45" value="no" style="edgeLabel;html=1;align=center;verticalAlign=middle;resizable=0;points=[];" vertex="1" connectable="0" parent="bU1lk9gH_a850dXzaI8o-44">
          <mxGeometry x="-0.1878" y="-1" relative="1" as="geometry">
            <mxPoint as="offset" />
          </mxGeometry>
        </mxCell>
        <mxCell id="bU1lk9gH_a850dXzaI8o-46" value="" style="edgeStyle=elbowEdgeStyle;elbow=horizontal;endArrow=classic;html=1;curved=0;rounded=0;endSize=8;startSize=8;entryX=0;entryY=0.5;entryDx=0;entryDy=0;exitX=0;exitY=0.5;exitDx=0;exitDy=0;" edge="1" parent="1" source="bU1lk9gH_a850dXzaI8o-43" target="bU1lk9gH_a850dXzaI8o-40">
          <mxGeometry width="50" height="50" relative="1" as="geometry">
            <mxPoint x="465" y="1090" as="sourcePoint" />
            <mxPoint x="445" y="900" as="targetPoint" />
            <Array as="points">
              <mxPoint x="395" y="990" />
            </Array>
          </mxGeometry>
        </mxCell>
        <mxCell id="bU1lk9gH_a850dXzaI8o-47" style="edgeStyle=orthogonalEdgeStyle;rounded=0;orthogonalLoop=1;jettySize=auto;html=1;entryX=0.5;entryY=0;entryDx=0;entryDy=0;" edge="1" parent="1" source="bU1lk9gH_a850dXzaI8o-49" target="bU1lk9gH_a850dXzaI8o-42">
          <mxGeometry relative="1" as="geometry" />
        </mxCell>
        <mxCell id="bU1lk9gH_a850dXzaI8o-48" value="yes" style="edgeLabel;html=1;align=center;verticalAlign=middle;resizable=0;points=[];" vertex="1" connectable="0" parent="bU1lk9gH_a850dXzaI8o-47">
          <mxGeometry x="0.345" y="2" relative="1" as="geometry">
            <mxPoint as="offset" />
          </mxGeometry>
        </mxCell>
        <mxCell id="bU1lk9gH_a850dXzaI8o-49" value="matrix[i].Length&amp;lt;len" style="rhombus;whiteSpace=wrap;html=1;" vertex="1" parent="1">
          <mxGeometry x="475" y="940" width="140" height="100" as="geometry" />
        </mxCell>
        <mxCell id="bU1lk9gH_a850dXzaI8o-53" value="" style="endArrow=none;html=1;rounded=0;exitX=1;exitY=0.5;exitDx=0;exitDy=0;" edge="1" parent="1">
          <mxGeometry width="50" height="50" relative="1" as="geometry">
            <mxPoint x="640.5" y="860" as="sourcePoint" />
            <mxPoint x="780.5" y="860" as="targetPoint" />
          </mxGeometry>
        </mxCell>
        <mxCell id="bU1lk9gH_a850dXzaI8o-54" value="no" style="edgeLabel;html=1;align=center;verticalAlign=middle;resizable=0;points=[];" vertex="1" connectable="0" parent="bU1lk9gH_a850dXzaI8o-53">
          <mxGeometry x="0.3191" y="-2" relative="1" as="geometry">
            <mxPoint as="offset" />
          </mxGeometry>
        </mxCell>
        <mxCell id="bU1lk9gH_a850dXzaI8o-55" value="" style="endArrow=none;html=1;rounded=0;" edge="1" parent="1">
          <mxGeometry width="50" height="50" relative="1" as="geometry">
            <mxPoint x="780" y="1200" as="sourcePoint" />
            <mxPoint x="780.5" y="860" as="targetPoint" />
          </mxGeometry>
        </mxCell>
        <mxCell id="bU1lk9gH_a850dXzaI8o-56" value="" style="endArrow=none;html=1;rounded=0;" edge="1" parent="1">
          <mxGeometry width="50" height="50" relative="1" as="geometry">
            <mxPoint x="540.5" y="1200" as="sourcePoint" />
            <mxPoint x="780.5" y="1200" as="targetPoint" />
          </mxGeometry>
        </mxCell>
        <mxCell id="bU1lk9gH_a850dXzaI8o-57" value="" style="endArrow=classic;html=1;rounded=0;" edge="1" parent="1">
          <mxGeometry width="50" height="50" relative="1" as="geometry">
            <mxPoint x="540" y="1199" as="sourcePoint" />
            <mxPoint x="540" y="1259" as="targetPoint" />
          </mxGeometry>
        </mxCell>
        <mxCell id="bU1lk9gH_a850dXzaI8o-59" value="matrix2" style="shape=document;whiteSpace=wrap;html=1;boundedLbl=1;" vertex="1" parent="1">
          <mxGeometry x="485" y="1260" width="120" height="80" as="geometry" />
        </mxCell>
      </root>
    </mxGraphModel>
  </diagram>
</mxfile>
